<?xml version="1.0" encoding="UTF-8"?>
<svg width="30px" height="30px" viewBox="0 0 30 30" version="1.1" xmlns="http://www.w3.org/2000/svg" xmlns:xlink="http://www.w3.org/1999/xlink">
    <title>glass</title>
    <g id="Page-1" stroke="none" stroke-width="1" fill="none" fill-rule="evenodd">
        <g id="Group">
            <circle id="Oval" fill="#FFE9B3" cx="15" cy="15" r="15"></circle>
            <g id="magnifying-glass-solid-(1)" transform="translate(5.000000, 5.000000)" fill="#A45333" fill-rule="nonzero">
                <path d="M19.5429963,17.3301678 L14.8671977,12.6548856 C15.9304829,11.0765385 16.4550942,9.1044834 16.1742338,7.00314522 C15.6953258,3.42891739 12.7656274,0.520243516 9.18748905,0.067284057 C3.86754738,-0.605808153 -0.605906773,3.86715186 0.067298857,9.1865059 C0.520425543,12.7658113 3.42981137,15.6975296 7.00482468,16.1740412 C9.106395,16.4548316 11.0790586,15.9304735 12.6571895,14.8671495 L17.3329881,19.5424317 C17.9431466,20.1525228 18.9326034,20.1525228 19.542762,19.5424317 C20.1523736,18.9315594 20.1523736,17.9394778 19.5429963,17.3301678 Z M3.08981011,8.12411931 C3.08981011,5.36738234 5.3327872,3.124653 8.08982872,3.124653 C10.8468702,3.124653 13.0898473,5.36738234 13.0898473,8.12411931 C13.0898473,10.8808563 10.8468702,13.1235856 8.08982872,13.1235856 C5.3327872,13.1235856 3.08981011,10.8816374 3.08981011,8.12411931 Z" id="Shape"></path>
            </g>
        </g>
    </g>
</svg>